<?xml version="1.0" encoding="UTF-8"?>
<svg id="_レイヤー_2" data-name="レイヤー 2" xmlns="http://www.w3.org/2000/svg" width="1223.02" height="198.69" viewBox="0 0 1223.02 198.69">
  <g id="_レイヤー_1-2" data-name="レイヤー 1">
    <g>
      <path d="m92.64,198.69c-12.96,0-25.08-2.44-36.36-7.32-11.28-4.88-21.12-11.68-29.52-20.4-8.4-8.72-14.96-18.92-19.68-30.6-4.72-11.68-7.08-24.32-7.08-37.92s2.36-25.96,7.08-37.56c4.72-11.6,11.28-21.76,19.68-30.48,8.4-8.72,18.2-15.56,29.4-20.52,11.2-4.96,23.36-7.44,36.48-7.44,12.32,0,22.92,1.6,31.8,4.8,8.88,3.2,17.8,8.48,26.76,15.84,1.28.96,2.28,1.96,3,3,.72,1.04,1.2,2.08,1.44,3.12.24,1.04.36,2.28.36,3.72,0,3.04-1.08,5.56-3.24,7.56-2.16,2-4.76,3.12-7.8,3.36-3.04.24-6-.76-8.88-3-5.92-5.12-12.04-9.04-18.36-11.76-6.32-2.72-14.68-4.08-25.08-4.08-9.44,0-18.32,1.92-26.64,5.76-8.32,3.84-15.64,9.12-21.96,15.84-6.32,6.72-11.24,14.52-14.76,23.4-3.52,8.88-5.28,18.36-5.28,28.44s1.76,19.8,5.28,28.68c3.52,8.88,8.44,16.68,14.76,23.4,6.32,6.72,13.64,11.96,21.96,15.72,8.32,3.76,17.2,5.64,26.64,5.64,8.16,0,15.88-1.4,23.16-4.2,7.28-2.8,14.28-6.68,21-11.64,2.88-2.08,5.72-3,8.52-2.76,2.8.24,5.16,1.36,7.08,3.36,1.92,2,2.88,4.76,2.88,8.28,0,1.6-.32,3.16-.96,4.68-.64,1.52-1.6,2.92-2.88,4.2-8.64,6.88-17.88,12.08-27.72,15.6s-20.2,5.28-31.08,5.28Z" fill="#858585"/>
      <path d="m413.04,142.77c-3.52,0-6.44-1.12-8.76-3.36-2.32-2.24-3.48-5.12-3.48-8.64s1.16-6.64,3.48-8.88c2.32-2.24,5.24-3.36,8.76-3.36h53.52c3.52,0,6.4,1.12,8.64,3.36,2.24,2.24,3.36,5.2,3.36,8.88s-1.12,6.4-3.36,8.64c-2.24,2.24-5.12,3.36-8.64,3.36h-53.52Z" fill="#858585"/>
      <path d="m499.67,90.45c-3.36,0-6.08-.96-8.16-2.88-2.08-1.92-3.12-4.32-3.12-7.2,0-3.2,1.04-5.76,3.12-7.68,2.08-1.92,4.8-2.88,8.16-2.88h59.28c3.36,0,6.08.96,8.16,2.88,2.08,1.92,3.12,4.48,3.12,7.68,0,2.88-1.04,5.28-3.12,7.2-2.08,1.92-4.8,2.88-8.16,2.88h-59.28Zm22.08,105.84c-3.04,0-5.76-1.12-8.16-3.36-2.4-2.24-3.6-5.2-3.6-8.88v-118.32c0-11.52,2.28-21.52,6.84-30,4.56-8.48,10.92-15.08,19.08-19.8,8.16-4.72,17.6-7.08,28.32-7.08,3.52,0,6.44,1.04,8.76,3.12,2.32,2.08,3.48,4.72,3.48,7.92s-1.16,5.64-3.48,7.8c-2.32,2.16-5.24,3.24-8.76,3.24-5.92,0-11.12,1.36-15.6,4.08-4.48,2.72-7.96,6.48-10.44,11.28-2.48,4.8-3.72,10.48-3.72,17.04v120.72c0,3.68-1.12,6.64-3.36,8.88-2.24,2.24-5.36,3.36-9.36,3.36Z" fill="#858585"/>
      <path d="m607.67,196.29c-3.84,0-6.8-1-8.88-3-2.08-2-3.12-5-3.12-9v-107.28c0-3.84,1.04-6.8,3.12-8.88s5.04-3.12,8.88-3.12,7,1,9,3c2,2,3,5,3,9v107.28c0,3.84-1,6.8-3,8.88-2,2.08-5,3.12-9,3.12Zm-.24-82.08c0-9.6,2.36-18.2,7.08-25.8,4.72-7.6,11.08-13.64,19.08-18.12,8-4.48,16.8-6.72,26.4-6.72s16.76,1.56,21.48,4.68c4.72,3.12,6.52,6.84,5.4,11.16-.48,2.24-1.4,3.96-2.76,5.16-1.36,1.2-2.92,1.96-4.68,2.28-1.76.32-3.68.24-5.76-.24-10.24-2.08-19.44-2.24-27.6-.48-8.16,1.76-14.6,5.04-19.32,9.84-4.72,4.8-7.08,10.88-7.08,18.24h-12.24Z" fill="#858585"/>
      <path d="m726.95,43.65c-4.32,0-8.04-1.56-11.16-4.68-3.12-3.12-4.68-6.84-4.68-11.16s1.56-8.04,4.68-11.16c3.12-3.12,6.84-4.68,11.16-4.68s8.04,1.56,11.16,4.68c3.12,3.12,4.68,6.84,4.68,11.16s-1.56,8.04-4.68,11.16c-3.12,3.12-6.84,4.68-11.16,4.68Zm0,152.64c-3.52,0-6.44-1.16-8.76-3.48-2.32-2.32-3.48-5.24-3.48-8.76v-106.8c0-3.68,1.16-6.64,3.48-8.88,2.32-2.24,5.24-3.36,8.76-3.36s6.64,1.12,8.88,3.36c2.24,2.24,3.36,5.2,3.36,8.88v106.8c0,3.52-1.12,6.44-3.36,8.76-2.24,2.32-5.2,3.48-8.88,3.48Z" fill="#858585"/>
      <path d="m846.47,197.25c-13.28,0-25.08-2.84-35.4-8.52-10.32-5.68-18.4-13.52-24.24-23.52-5.84-10-8.76-21.48-8.76-34.44s2.76-24.68,8.28-34.68c5.52-10,13.16-17.84,22.92-23.52,9.76-5.68,20.96-8.52,33.6-8.52s23.2,2.76,32.16,8.28c8.96,5.52,15.8,13.12,20.52,22.8,4.72,9.68,7.08,20.84,7.08,33.48,0,3.04-1.04,5.56-3.12,7.56-2.08,2-4.72,3-7.92,3h-96.72v-19.2h96l-9.84,6.72c-.16-8-1.76-15.16-4.8-21.48-3.04-6.32-7.36-11.32-12.96-15-5.6-3.68-12.4-5.52-20.4-5.52-9.12,0-16.92,2-23.4,6-6.48,4-11.4,9.48-14.76,16.44s-5.04,14.84-5.04,23.64,2,16.64,6,23.52c4,6.88,9.52,12.32,16.56,16.32,7.04,4,15.12,6,24.24,6,4.96,0,10.04-.92,15.24-2.76,5.2-1.84,9.4-3.96,12.6-6.36,2.4-1.76,5-2.68,7.8-2.76,2.8-.08,5.24.76,7.32,2.52,2.72,2.4,4.16,5.04,4.32,7.92.16,2.88-1.12,5.36-3.84,7.44-5.44,4.32-12.2,7.84-20.28,10.56-8.08,2.72-15.8,4.08-23.16,4.08Z" fill="#858585"/>
      <path d="m946.06,196.53c-3.52,0-6.44-1.16-8.76-3.48-2.32-2.32-3.48-5.24-3.48-8.76v-107.04c0-3.68,1.16-6.64,3.48-8.88,2.32-2.24,5.24-3.36,8.76-3.36s6.64,1.12,8.88,3.36c2.24,2.24,3.36,5.2,3.36,8.88v107.04c0,3.52-1.12,6.44-3.36,8.76-2.24,2.32-5.2,3.48-8.88,3.48Zm98.64,0c-3.52,0-6.44-1.16-8.76-3.48-2.32-2.32-3.48-5.24-3.48-8.76v-59.04c0-9.12-1.68-16.56-5.04-22.32-3.36-5.76-7.88-10.04-13.56-12.84-5.68-2.8-12.2-4.2-19.56-4.2-6.72,0-12.8,1.36-18.24,4.08-5.44,2.72-9.76,6.36-12.96,10.92-3.2,4.56-4.8,9.8-4.8,15.72h-15.12c0-10.08,2.44-19.08,7.32-27,4.88-7.92,11.56-14.2,20.04-18.84,8.48-4.64,18-6.96,28.56-6.96s20.92,2.36,29.64,7.08c8.72,4.72,15.6,11.64,20.64,20.76,5.04,9.12,7.56,20.32,7.56,33.6v59.04c0,3.52-1.16,6.44-3.48,8.76s-5.24,3.48-8.76,3.48Z" fill="#858585"/>
      <path d="m1157.02,197.25c-12.48,0-23.72-2.92-33.72-8.76-10-5.84-17.92-13.8-23.76-23.88-5.84-10.08-8.76-21.44-8.76-34.08s2.68-23.96,8.04-33.96c5.36-10,12.68-17.92,21.96-23.76,9.28-5.84,19.76-8.76,31.44-8.76,9.44,0,18.16,1.96,26.16,5.88,8,3.92,14.72,9.24,20.16,15.96V21.09c0-3.68,1.16-6.64,3.48-8.88,2.32-2.24,5.24-3.36,8.76-3.36s6.64,1.12,8.88,3.36c2.24,2.24,3.36,5.2,3.36,8.88v109.44c0,12.64-2.92,24-8.76,34.08-5.84,10.08-13.72,18.04-23.64,23.88-9.92,5.84-21.12,8.76-33.6,8.76Zm0-21.6c8.16,0,15.44-1.96,21.84-5.88,6.4-3.92,11.44-9.32,15.12-16.2,3.68-6.88,5.52-14.56,5.52-23.04s-1.84-16.32-5.52-23.04c-3.68-6.72-8.72-12.04-15.12-15.96-6.4-3.92-13.68-5.88-21.84-5.88s-15.24,1.96-21.72,5.88c-6.48,3.92-11.6,9.24-15.36,15.96-3.76,6.72-5.64,14.4-5.64,23.04s1.88,16.16,5.64,23.04c3.76,6.88,8.88,12.28,15.36,16.2,6.48,3.92,13.72,5.88,21.72,5.88Z" fill="#858585"/>
      <path d="m214.38,86.03c-5.63,0-10.37-1.94-14.24-5.83-3.86-3.89-5.8-8.64-5.8-14.27s1.94-10.37,5.83-14.24c3.89-3.86,8.64-5.8,14.27-5.8s10.37,1.94,14.24,5.83c3.86,3.89,5.8,8.64,5.8,14.27s-1.94,10.37-5.83,14.24c-3.89,3.86-8.64,5.8-14.27,5.8Zm41.25-37.9c-5.63,0-10.37-1.94-14.24-5.83-3.86-3.89-5.8-8.64-5.8-14.27s1.94-10.37,5.83-14.24c3.89-3.86,8.64-5.8,14.27-5.8s10.37,1.94,14.24,5.83c3.86,3.89,5.8,8.64,5.8,14.27s-1.94,10.37-5.83,14.24c-3.89,3.86-8.64,5.8-14.27,5.8Zm55.74,0c-5.63,0-10.37-1.94-14.24-5.83-3.86-3.89-5.8-8.64-5.8-14.27s1.94-10.37,5.83-14.24c3.89-3.86,8.64-5.8,14.27-5.8s10.37,1.94,14.24,5.83c3.86,3.89,5.8,8.64,5.8,14.27s-1.94,10.37-5.83,14.24c-3.89,3.86-8.64,5.8-14.27,5.8Zm41.25,37.9c-5.63,0-10.37-1.94-14.24-5.83-3.86-3.89-5.8-8.64-5.8-14.27s1.94-10.37,5.83-14.24c3.89-3.86,8.64-5.8,14.27-5.8s10.37,1.94,14.24,5.83c3.86,3.89,5.8,8.64,5.8,14.27s-1.94,10.37-5.83,14.24c-3.89,3.86-8.64,5.8-14.27,5.8Zm-116.79,91.41c-6.24,0-11.37-2.34-15.38-7.03-4.01-4.69-6.02-10.22-6.02-16.6s1.9-11.78,5.69-16.61c3.79-4.83,7.84-9.48,12.15-13.93,3.27-3.27,6.32-6.73,9.14-10.37s5.5-7.39,8.03-11.26c4.31-6.54,9.14-12.63,14.49-18.28,5.35-5.65,11.89-8.47,19.62-8.47s14.31,2.82,19.73,8.47c5.43,5.65,10.29,11.82,14.6,18.5,2.53,3.86,5.17,7.58,7.91,11.15s5.76,6.99,9.03,10.26c4.31,4.46,8.36,9.1,12.15,13.93,3.79,4.83,5.69,10.37,5.69,16.61s-2.01,11.92-6.02,16.6c-4.01,4.69-9.14,7.03-15.38,7.03-8.03,0-15.98-.67-23.86-2.01s-15.83-2.01-23.86-2.01-15.98.67-23.86,2.01-15.83,2.01-23.86,2.01Z" fill="none" stroke="#ec8277" stroke-miterlimit="10" stroke-width="16"/>
    </g>
  </g>
</svg>